<svg width="118" height="120" viewBox="0 0 118 120" fill="none" xmlns="http://www.w3.org/2000/svg">
<g clip-path="url(#clip0_2_16)">
<path d="M44.1467 120C42.3598 119.3 41.4492 117.982 40.941 116.143C39.1118 109.549 34.7916 105.381 28.1896 103.455C27.1148 103.142 25.9289 102.574 25.2274 101.756C23.4776 99.714 24.5683 96.7698 27.1519 95.8173C29.3067 95.028 31.5435 94.3018 33.5051 93.1415C37.2508 90.9129 39.5777 87.4978 40.8774 83.3485C41.248 82.1592 41.7298 80.8358 42.5822 79.9938C44.5385 78.0547 47.7362 79.1255 48.7236 81.7961C49.4887 83.8694 50.1716 86.0217 51.294 87.9029C53.5865 91.747 57.0675 94.2018 61.4141 95.4043C62.6662 95.7489 63.9289 96.0647 64.7813 97.1618C66.4279 99.2667 65.4828 102.229 62.9283 103.169C60.9138 103.905 58.8093 104.521 56.9695 105.579C52.885 107.926 50.2484 111.501 49.0995 116.066C48.6257 117.956 47.6833 119.326 45.817 120H44.1467Z" fill="#4663AC"/>
<path d="M71.9975 35.8122C71.9975 37.604 70.7692 39.0116 68.8924 39.601C66.1314 40.4692 63.2698 41.1586 60.6862 42.3952C49.6978 47.6312 42.8152 56.2533 39.9298 68.0065C39.5036 69.7536 38.6327 71.0323 36.8458 71.4717C34.6778 71.9979 32.8354 70.6376 32.1048 68.3144C31.1783 65.3859 30.3762 62.3628 29.0076 59.6317C23.7953 49.2598 15.4038 42.6873 4.09247 39.8299C2.86154 39.5168 1.65178 39.2116 0.817925 38.1539C-0.89479 35.9779 0.16937 32.9469 2.88271 32.0549C6.00107 31.0288 9.23591 30.2132 12.1478 28.7608C22.4453 23.6143 28.9838 15.3421 31.8692 4.24928C32.2054 2.95477 32.4833 1.65237 33.6454 0.789362C35.967 -0.936652 38.9397 0.24472 39.8318 3.15737C40.6763 5.90952 41.391 8.74849 42.6378 11.3138C47.9057 22.1725 56.5407 28.9923 68.3153 31.8629C70.7322 32.4549 72.0028 33.8257 71.9975 35.8122Z" fill="#4663AC"/>
<path d="M118 63.8257C118 65.7754 116.743 67.1698 114.432 67.7066C110.07 68.7193 106.08 70.9254 102.914 74.0753C99.7481 77.2252 97.5326 81.1931 96.5183 85.5298C96.2535 86.6743 95.7929 87.6768 94.795 88.353C92.4125 89.9632 89.4874 88.795 88.77 85.8797C88.0341 82.8908 86.917 80.0913 85.1646 77.5496C81.6518 72.49 76.8948 69.1853 70.8699 67.7487C69.0804 67.3225 67.7251 66.4805 67.2698 64.6492C66.7403 62.5443 68.0639 60.5526 70.3511 60.0106C73.4983 59.3099 76.4769 58.0031 79.1185 56.1639C83.8992 52.7645 87.0599 48.2442 88.5291 42.5794C89.2412 39.8299 90.5966 38.4749 92.6402 38.5117C94.6838 38.5486 95.875 39.851 96.648 42.5663C99.2104 51.5726 105.039 57.3453 114.135 59.8053C116.737 60.5079 118.021 61.7787 118 63.8257Z" fill="#4663AC"/>
</g>
<defs>
<clipPath id="clip0_2_16">
<rect width="118" height="120" fill="white"/>
</clipPath>
</defs>
</svg>
